<?xml version="1.0" encoding="UTF-8"?>
<!DOCTYPE svg PUBLIC "-//W3C//DTD SVG 1.1//EN" "http://www.w3.org/Graphics/SVG/1.1/DTD/svg11.dtd">
<!-- Creator: CorelDRAW 2017 -->
<svg xmlns="http://www.w3.org/2000/svg" xml:space="preserve" width="5.217in" height="2.109in" version="1.1" style="shape-rendering:geometricPrecision; text-rendering:geometricPrecision; image-rendering:optimizeQuality; fill-rule:evenodd; clip-rule:evenodd"
viewBox="0 0 5217 2109"
 xmlns:xlink="http://www.w3.org/1999/xlink">
 <defs>
  <style type="text/css">
   <![CDATA[
    .fil0 {fill:#1C1B17}
    .fil2 {fill:#1C1B17;fill-rule:nonzero}
    .fil1 {fill:#1C1B17;fill-rule:nonzero}
   ]]>
  </style>
 </defs>
 <g id="Layer_x0020_1">
  <metadata id="CorelCorpID_0Corel-Layer"/>
  <g id="_1732371747840">
   <path class="fil0" d="M930 646l0 574c0,200 -147,368 -338,400 -118,27 -239,-4 -239,-4l0 0c-182,-40 -319,-203 -319,-396l0 -574 263 0 0 558c0,62 34,117 85,146l0 0c0,0 0,0 1,1 14,8 30,14 46,18 38,10 94,15 151,-16 1,-1 3,-1 4,-2l0 0 0 0c50,-29 84,-84 84,-146l0 -558 263 0zm1237 60l-242 0 0 -32 506 -391 -264 423zm2750 85c91,0 164,30 218,91 54,61 82,145 82,251l0 470 -237 0 0 -437c0,-54 -13,-96 -40,-125 -27,-30 -63,-45 -109,-45 -46,0 -82,15 -109,45 -27,30 -40,72 -40,125l0 437 -239 0 0 -804 239 0 0 107c24,-36 57,-64 98,-84 41,-21 87,-31 138,-31zm-2421 415c0,12 1,23 2,33 3,26 28,185 234,156 60,-13 97,-44 113,-60l116 140 21 27c-224,221 -518,74 -518,74l0 0c-8,-4 -16,-8 -24,-12 -61,-34 -109,-82 -143,-144 -34,-61 -51,-133 -51,-215 1,-82 18,-154 51,-215 34,-62 82,-110 143,-144 8,-4 16,-8 24,-12l0 0c0,0 295,-147 518,74l-21 27 -116 140c-15,-15 -53,-46 -113,-60 -206,-29 -231,130 -234,156 -1,11 -2,22 -2,33zm-966 -415c91,0 164,30 218,91 54,61 82,145 82,251l0 470 -237 0 0 -437c0,-54 -13,-96 -40,-125 -27,-30 -63,-45 -109,-45 -46,0 -82,15 -109,45 -27,30 -40,72 -40,125l0 437 -239 0 0 -804 239 0 0 107c24,-36 57,-64 98,-84 41,-21 87,-31 138,-31zm637 9l0 804 -241 0 0 -804 241 0zm2198 -9c3,0 5,0 8,0l0 261c-24,-10 -46,-16 -65,-19 -163,-12 -197,91 -203,124 -1,4 -1,7 -2,11l-1 123 -1 313 -236 0 0 -807 222 0 0 110c70,-147 279,-115 279,-115l0 0zm-991 833c-81,0 -155,-17 -219,-52 -65,-34 -116,-83 -153,-147 -37,-64 -56,-138 -56,-224 0,-84 19,-159 57,-223 38,-64 89,-114 155,-148 65,-34 139,-52 220,-52 81,0 155,17 220,52 65,34 117,84 155,148 38,64 57,139 57,223 0,84 -19,159 -57,223 -38,64 -90,114 -156,148 -66,34 -140,52 -221,52zm0 -222c49,0 90,-18 124,-53 34,-35 51,-82 51,-148 0,-66 -17,-103 -50,-138 -33,-35 -74,-53 -123,-53 -50,0 -91,17 -124,52 -33,35 -49,72 -49,139 0,66 16,112 48,148 32,35 73,53 121,53z"/>
   <g>
    <path class="fil1" d="M1201 313c0,14 -1,27 -3,38l-271 0c2,28 12,42 28,58 16,16 37,24 61,24 35,0 60,-16 74,-47l101 0c-11,37 -31,68 -62,92 -30,24 -68,36 -112,36 -36,0 -68,-8 -96,-25 -28,-17 -50,-40 -66,-71 -16,-30 -24,-58 -24,-97 0,-40 8,-76 23,-106 16,-30 37,-54 66,-70 28,-16 60,-25 97,-25 35,0 67,8 95,24 28,16 49,39 65,68 15,29 23,63 23,101zm-97 -28c0,-25 -9,-46 -26,-61 -17,-15 -38,-23 -62,-23 -23,0 -43,7 -59,22 -16,15 -26,35 -29,61l176 0z"/>
    <path class="fil1" d="M650 123c31,0 58,7 81,20 24,13 42,33 56,59 13,26 20,57 20,93l0 212 -102 0 0 -199c0,-32 -8,-57 -24,-74 -16,-17 -38,-26 -65,-26 -28,0 -50,9 -66,26 -16,17 -24,42 -24,74l0 199 -102 0 0 -508 102 0 0 179c13,-17 31,-31 52,-41 22,-10 46,-15 73,-15z"/>
    <polygon class="fil1" points="372,0 372,82 237,82 237,507 135,507 135,82 0,82 0,0 "/>
   </g>
   <g>
    <polygon class="fil2" points="3700,1826 3700,1910 3853,1910 3853,1963 3700,1963 3700,2052 3867,2052 3867,2106 3633,2106 3633,1772 3867,1772 3867,1826 "/>
    <polygon class="fil2" points="3553,2106 3486,2106 3334,1877 3334,2106 3267,2106 3267,1772 3334,1772 3486,2001 3486,1772 3553,1772 "/>
    <polygon class="fil2" points="3178,1772 3178,2106 3111,2106 3111,1772 "/>
    <polygon class="fil2" points="2874,2036 3037,2036 3037,2106 2789,2106 2789,2041 2952,1846 2789,1846 2789,1772 3037,1772 3037,1841 "/>
    <path class="fil2" d="M2338 1873c-8,-14 -18,-25 -32,-32 -13,-7 -29,-11 -47,-11 -20,0 -37,4 -53,13 -15,9 -27,22 -36,38 -9,17 -13,36 -13,57 0,22 4,42 13,58 9,17 21,29 37,38 16,9 34,13 55,13 26,0 46,-7 63,-20 16,-14 27,-32 32,-57l-88 0 0 -51 154 0 0 58c-4,23 -14,45 -29,65 -15,20 -34,36 -57,48 -23,12 -49,18 -78,18 -32,0 -61,-7 -87,-22 -26,-15 -46,-35 -61,-61 -15,-26 -22,-55 -22,-88 0,-33 7,-62 22,-88 15,-26 35,-46 61,-61 26,-15 55,-22 87,-22 38,0 70,9 98,28 28,18 47,44 57,77l-77 0z"/>
    <path class="fil2" d="M1971 2026l-142 0 -24 80 -75 0 128 -335 83 0 128 335 -76 0 -24 -80zm-19 -54l-52 -123 -52 123 103 0z"/>
    <polygon class="fil2" points="1703,1772 1703,2106 1638,2106 1638,1889 1551,2051 1502,2051 1415,1889 1415,2106 1350,2106 1350,1772 1424,1772 1527,1966 1630,1772 "/>
    <path class="fil2" d="M2658 2026l-142 0 -24 80 -75 0 128 -335 83 0 128 335 -76 0 -24 -80zm-19 -54l-52 -123 -52 123 103 0z"/>
   </g>
   <g>
    <rect class="fil0" y="1932" width="1152" height="45"/>
    <rect class="fil0" x="4065" y="1932" width="1152" height="45"/>
   </g>
  </g>
 </g>
</svg>
